HIERARCHY
ROOT Hips
{
	OFFSET 0.00000 0.00000 0.00000
	CHANNELS 6 Xposition Yposition Zposition Zrotation Yrotation Xrotation 
	JOINT LHipJoint
	{
		OFFSET 0 0 0
		CHANNELS 3 Zrotation Yrotation Xrotation
		JOINT LeftHip
		{
			OFFSET 3.13874 -1.57224 1.49786
			CHANNELS 3 Zrotation Yrotation Xrotation
			JOINT LeftKnee
			{
				OFFSET 2.10955 -5.79594 0.00000
				CHANNELS 3 Zrotation Yrotation Xrotation
				JOINT LeftAnkle
				{
					OFFSET 2.41843 -6.64458 0.00000
					CHANNELS 3 Zrotation Yrotation Xrotation
					JOINT LeftToe
					{
						OFFSET 0.04713 -0.12948 1.66229
						CHANNELS 3 Zrotation Yrotation Xrotation
						End Site
						{
							OFFSET 0.00000 -0.00000 0.85167
						}
					}
				}
			}
		}
	}
	JOINT RHipJoint
	{
		OFFSET 0 0 0
		CHANNELS 3 Zrotation Yrotation Xrotation
		JOINT RightHip
		{
			OFFSET -3.13988 -1.57224 1.49786
			CHANNELS 3 Zrotation Yrotation Xrotation
			JOINT RightKnee
			{
				OFFSET -2.15006 -5.90725 0.00000
				CHANNELS 3 Zrotation Yrotation Xrotation
				JOINT RightAnkle
				{
					OFFSET -2.34496 -6.44273 0.00000
					CHANNELS 3 Zrotation Yrotation Xrotation
					JOINT RightToe
					{
						OFFSET -0.08699 -0.23900 1.55223
						CHANNELS 3 Zrotation Yrotation Xrotation
						End Site
						{
							OFFSET -0.00000 -0.00000 0.80281
						}
					}
				}
			}
		}
	}
	JOINT lowerback
	{
		OFFSET 0 0 0
		CHANNELS 3 Zrotation Yrotation Xrotation
		JOINT Chest
		{
			OFFSET 0.01292 1.96517 -0.16495
			CHANNELS 3 Zrotation Yrotation Xrotation
			JOINT Chest2
			{
				OFFSET 0.02122 1.88666 0.19706
				CHANNELS 3 Zrotation Yrotation Xrotation
				JOINT lowerneck
				{
					OFFSET 0 0 0
					CHANNELS 3 Zrotation Yrotation Xrotation
					JOINT Neck
					{
						OFFSET -0.01683 1.81591 0.07903
						CHANNELS 3 Zrotation Yrotation Xrotation
						JOINT Head
						{
							OFFSET 0.00815 1.74013 -0.47700
							CHANNELS 3 Zrotation Yrotation Xrotation
							End Site
							{
								OFFSET -0.00204 1.83225 -0.16933
							}
						}
					}
				}
				JOINT LeftCollar
				{
					OFFSET 0 0 0
					CHANNELS 3 Zrotation Yrotation Xrotation
					JOINT LeftShoulder
					{
						OFFSET 3.38482 1.41533 0.19802
CHANNELS 3 Zrotation Xrotation Yrotation
						JOINT LeftElbow
						{
OFFSET 0 -4.327120 0.000000
CHANNELS 3 Zrotation Xrotation Yrotation
							JOINT LeftWrist
							{
OFFSET 0 -3.285870 -0.000000
CHANNELS 3 Zrotation Xrotation Yrotation
								JOINT lhand
								{
									OFFSET 0 0 0
CHANNELS 3 Zrotation Xrotation Yrotation
									JOINT LFingers
									{
OFFSET 0 -0.433160 -0.000000
CHANNELS 3 Zrotation Xrotation Yrotation
										End Site
										{
OFFSET 0 -0.349220 -0.000000
										}
									}
								}
								JOINT LThumb
								{
OFFSET 0 0.000000 0.000000
CHANNELS 3 Zrotation Xrotation Yrotation
									End Site
									{
OFFSET 0 -0.354560 0.354560
									}
								}
							}
						}
					}
				}
				JOINT RightCollar
				{
					OFFSET 0 0 0
					CHANNELS 3 Zrotation Yrotation Xrotation
					JOINT RightShoulder
					{
						OFFSET -3.09725 1.62858 -0.14144
CHANNELS 3 Zrotation Xrotation Yrotation
						JOINT RightElbow
						{
OFFSET 0 -4.291040 0.000000
CHANNELS 3 Zrotation Xrotation Yrotation
							JOINT RightWrist
							{
OFFSET 0 -3.227200 -0.000000
CHANNELS 3 Zrotation Xrotation Yrotation
								JOINT rhand
								{
									OFFSET 0 0 0
CHANNELS 3 Zrotation Xrotation Yrotation
									JOINT RFingers
									{
OFFSET 0 -0.543620 -0.000000
CHANNELS 3 Zrotation Xrotation Yrotation
										End Site
										{
OFFSET 0 -0.438280 -0.000000
										}
									}
								}
								JOINT RThumb
								{
OFFSET 0 0.000000 0.000000
CHANNELS 3 Zrotation Xrotation Yrotation
									End Site
									{
OFFSET 0 -0.444970 0.444970
									}
								}
							}
						}
					}
				}
			}
		}
	}
}
MOTION
Frames: 8
Frame Time: 0.008333333333333333
-8.453200 16.133100 4.182800 175.530000 -85.093700 -165.670000 0.000000 0.000000 0.000000 -32.220500 -21.982000 1.864200 0.144200 2.446900 6.742400 1.965100 -16.169300 -25.986100 0.269000 -3.336100 -9.216000 0.000000 0.000000 0.000000 21.158500 12.880900 -16.878400 -1.258100 -7.110500 20.043300 -0.782600 -7.351300 -20.950500 -3.441800 11.378100 -33.565900 -4.299300 1.909100 8.587800 1.527500 1.918700 -9.103900 3.738200 1.394600 -15.207000 -0.281100 -1.324100 -21.313800 -1.774500 -1.647800 28.565100 -0.966500 -1.160200 13.127000 -0.000000 0.000000 0.000000 11.650200 19.828600 -5.524300 13.104100 -21.439500 2.491200 31.186900 33.477100 -30.477200 0.000000 0.000000 0.000000 -7.125000 0.000000 0.000000 -0.094500 64.504800 0.044600 -0.000000 0.000000 0.000000 -21.906700 13.099600 26.386000 -20.850200 -31.653100 -5.971100 15.041200 -42.741500 34.058500 0.000000 0.000000 0.000000 7.125000 0.000000 -0.000000 51.174000 56.533200 -17.620600
-8.473474 16.145602 4.180942 179.270514 -84.987178 -169.269442 0.000000 0.000000 0.000000 -31.879816 -22.035894 1.939297 0.140652 2.417334 6.660460 2.189210 -14.746925 -27.034846 0.522676 -4.599833 -12.776077 0.000000 0.000000 0.000000 21.180463 15.251497 -16.065928 -0.964890 -6.241515 17.491168 -0.718907 -8.086478 -20.936224 -3.508028 11.475161 -33.899742 -4.005161 1.882406 8.650480 1.659955 1.938382 -9.171141 3.717335 1.383280 -15.321547 -0.435350 -1.205329 -21.427080 -1.708188 -1.435263 28.570084 -0.878900 -1.073867 13.157326 0.000000 0.000000 0.000000 11.453882 19.276055 -3.707853 12.648109 -20.768691 2.327489 32.093561 34.547049 -29.260350 0.000000 0.000000 0.000000 -7.125000 0.000000 0.000000 1.592702 63.448536 -0.705192 0.000000 0.000000 0.000000 -22.059514 13.226480 29.974714 -20.561383 -31.312500 -5.820483 6.933458 -34.826444 29.304803 0.000000 0.000000 0.000000 7.125000 0.000000 0.000000 39.584319 54.602713 -10.784363
-8.502435 16.154381 4.176463 181.326623 -84.919957 -171.215506 0.000000 0.000000 0.000000 -31.749493 -22.179766 2.145052 0.136001 2.377150 6.549079 2.415733 -13.086126 -28.137303 0.905905 -6.008702 -16.826101 0.000000 0.000000 0.000000 20.996961 17.625542 -15.125764 -0.693951 -5.296548 14.763149 -0.484152 -9.982538 -20.365122 -4.167072 12.357335 -37.040329 -3.781280 1.854195 8.581882 1.711466 1.940759 -9.199151 3.649999 1.362446 -15.301369 -0.407231 -1.106347 -21.469826 -1.723441 -1.292709 28.520875 -0.864386 -1.009047 13.146973 0.000000 0.000000 0.000000 11.362504 18.680072 -2.469951 12.307950 -20.264323 2.208181 32.596805 35.396847 -29.427912 0.000000 0.000000 0.000000 -7.125000 0.000000 0.000000 2.192934 63.772891 -0.999857 0.000000 0.000000 0.000000 -22.068570 13.341087 33.257781 -20.330069 -31.037746 -5.700685 -0.540649 -27.786961 26.616037 0.000000 0.000000 0.000000 7.125000 0.000000 0.000000 30.597366 53.812561 -7.229096
-8.541419 16.160078 4.169204 181.498526 -84.874193 -171.302514 0.000000 0.000000 0.000000 -31.847214 -22.369115 2.498612 0.128270 2.308078 6.357827 2.612883 -11.502791 -29.149017 1.338662 -7.286887 -20.585570 0.000000 0.000000 0.000000 20.610023 20.018046 -14.060471 -0.458157 -4.297718 11.922494 -0.259814 -11.437503 -19.509648 -5.125058 13.489705 -41.292836 -3.702717 1.814425 8.425493 1.707513 1.899118 -9.234140 3.612852 1.331723 -15.234079 -0.148932 -0.983880 -21.384234 -1.879827 -1.159022 28.436010 -0.943684 -0.943247 13.092147 0.000000 0.000000 0.000000 11.309286 18.211871 -1.940142 12.059425 -19.893435 2.122644 33.025235 35.884015 -30.007973 0.000000 0.000000 0.000000 -7.125000 0.000000 0.000000 2.535420 64.523368 -1.200851 0.000000 0.000000 0.000000 -22.042745 13.468157 36.298933 -20.078688 -30.736577 -5.571748 -6.934992 -21.699713 24.860610 0.000000 0.000000 0.000000 7.125000 0.000000 0.000000 23.410362 53.421615 -5.104785
-8.587518 16.163788 4.159270 180.369366 -84.844852 -170.106217 0.000000 0.000000 0.000000 -32.094859 -22.588809 2.952702 0.118098 2.214546 6.098991 2.753307 -10.467235 -29.904045 1.635794 -8.060493 -22.899036 0.000000 0.000000 0.000000 20.112251 22.298460 -12.948712 -0.269132 -3.285975 9.080321 -0.112805 -11.919328 -18.383044 -5.690194 14.121229 -43.725346 -3.738228 1.758848 8.238327 1.677408 1.813049 -9.306553 3.620786 1.291116 -15.193381 0.016052 -0.879129 -21.255903 -1.975196 -1.042361 28.442410 -0.987870 -0.889108 13.067388 0.000000 0.000000 0.000000 11.220858 17.901126 -1.879888 11.887275 -19.635305 2.064303 33.346713 36.032859 -30.410730 0.000000 0.000000 0.000000 -7.125000 0.000000 0.000000 2.808740 65.052167 -1.362704 0.000000 0.000000 0.000000 -22.051310 13.602711 39.202528 -19.768326 -30.361375 -5.414174 -12.414825 -16.793516 22.991703 0.000000 0.000000 0.000000 7.125000 0.000000 0.000000 17.150421 52.623225 -3.375883
-8.637358 16.165453 4.146897 178.752895 -84.836444 -168.429669 0.000000 0.000000 0.000000 -32.404768 -22.882796 3.475217 0.106567 2.104111 5.793508 2.834982 -10.305283 -30.358602 1.644246 -8.073200 -22.941425 0.000000 0.000000 0.000000 19.626131 24.251949 -11.899807 -0.134229 -2.322805 6.400237 -0.082769 -11.343013 -17.301155 -5.317861 13.696337 -42.104555 -3.785687 1.700719 8.024845 1.621313 1.716942 -9.411742 3.608686 1.245259 -15.174332 -0.074084 -0.833986 -21.137818 -1.883800 -0.984347 28.582749 -0.928895 -0.865249 13.102953 0.000000 0.000000 0.000000 11.102799 17.676215 -2.150241 11.801922 -19.506955 2.035692 33.492429 36.030059 -30.698615 0.000000 0.000000 0.000000 -7.125000 0.000000 0.000000 2.888275 65.405909 -1.423468 0.000000 0.000000 0.000000 -22.114809 13.832633 42.616978 -19.425791 -29.943883 -5.241908 -18.841289 -11.293706 21.295262 0.000000 0.000000 0.000000 7.125000 0.000000 0.000000 9.987150 52.123103 -1.649107
-8.689556 16.163188 4.132523 177.194057 -84.856906 -166.810988 0.000000 0.000000 0.000000 -32.750065 -23.354971 4.107791 0.093590 1.972273 5.429051 2.889818 -11.006095 -30.664045 1.341164 -7.320097 -20.672331 0.000000 0.000000 0.000000 19.251904 25.644713 -11.006970 -0.054088 -1.492314 4.104681 -0.163024 -10.029208 -16.566020 -4.129036 12.329942 -36.909873 -3.730626 1.669318 7.728327 1.503452 1.667735 -9.511584 3.459740 1.203739 -15.091577 -0.197639 -0.846416 -20.978107 -1.708399 -1.028314 28.751386 -0.849041 -0.878821 13.141058 0.000000 0.000000 0.000000 11.054587 17.420003 -2.909116 11.827337 -19.545169 2.044121 33.541330 36.134480 -31.445662 0.000000 0.000000 0.000000 -7.125000 0.000000 0.000000 2.642246 66.227858 -1.353129 0.000000 0.000000 0.000000 -22.178347 14.270576 47.226310 -19.136595 -29.588061 -5.098188 -28.318449 -2.397747 21.376391 0.000000 0.000000 0.000000 7.125000 0.000000 0.000000 0.406466 53.950772 -0.089464
-8.744549 16.154403 4.117993 175.133733 -84.897707 -164.749820 0.000000 0.000000 0.000000 -33.274142 -24.116083 5.061673 0.076188 1.779419 4.896526 2.967787 -12.234011 -31.118769 0.887792 -5.987180 -16.753070 0.000000 0.000000 0.000000 19.026105 26.236032 -10.274748 -0.023086 -0.964266 2.650628 0.297023 -11.810176 -11.439623 -4.272642 12.514349 -37.577219 -3.638380 1.662138 7.437398 1.328844 1.649658 -9.611348 3.219580 1.168429 -15.011073 -0.532579 -0.949052 -20.899208 -1.338149 -1.196333 29.083201 -0.681697 -0.945725 13.266417 0.000000 0.000000 0.000000 11.042085 17.105337 -3.973152 11.857410 -19.590447 2.054258 33.526884 36.178660 -31.889489 0.000000 0.000000 0.000000 -7.125000 0.000000 0.000000 2.420671 66.701251 -1.265868 0.000000 0.000000 0.000000 -21.900004 14.012338 47.873129 -18.925494 -29.325938 -4.994369 -28.278324 -2.394621 21.261506 0.000000 0.000000 0.000000 7.125000 0.000000 0.000000 0.422094 53.817134 -0.091492
